<?xml version="1.0" standalone="no"?>
<!DOCTYPE svg PUBLIC "-//W3C//DTD SVG 20010904//EN"
 "http://www.w3.org/TR/2001/REC-SVG-20010904/DTD/svg10.dtd">
<svg version="1.0" xmlns="http://www.w3.org/2000/svg"
 width="341.000000pt" height="147.000000pt" viewBox="0 0 341.000000 147.000000"
 preserveAspectRatio="xMidYMid meet">
<metadata>
Created by potrace 1.16, written by Peter Selinger 2001-2019
</metadata>
<g transform="translate(0.000000,147.000000) scale(0.100000,-0.100000)"
fill="#000000" stroke="none">
<path d="M1715 978 c-101 -37 -165 -123 -173 -231 -8 -110 37 -202 125 -254
42 -25 58 -28 133 -28 74 0 92 4 143 29 35 18 60 38 63 50 3 12 4 59 2 106
l-3 85 -105 0 c-98 0 -105 -1 -105 -20 0 -18 8 -20 83 -23 l82 -3 0 -63 0 -62
-42 -25 c-64 -36 -169 -35 -225 3 -65 43 -88 89 -88 179 0 66 4 81 30 124 34
54 83 85 148 92 39 5 66 -2 155 -38 28 -12 34 -12 42 0 13 22 2 36 -47 61 -54
27 -170 37 -218 18z"/>
<path d="M2147 984 c-11 -12 -8 -346 4 -389 23 -81 107 -136 209 -134 87 1
147 39 181 112 16 36 19 67 19 225 0 158 -2 183 -16 189 -9 3 -20 0 -25 -8 -5
-8 -9 -90 -9 -182 0 -188 -8 -220 -64 -260 -43 -30 -142 -31 -183 -1 -59 44
-66 70 -72 268 -5 152 -8 181 -21 184 -9 1 -19 0 -23 -4z"/>
<path d="M2682 977 c-9 -11 10 -65 87 -244 55 -127 104 -240 110 -252 13 -23
43 -28 58 -8 23 29 214 490 209 503 -8 21 -33 17 -50 -7 -8 -12 -52 -113 -97
-225 -46 -112 -86 -200 -90 -196 -4 4 -35 75 -69 157 -35 83 -75 179 -90 215
-27 66 -47 82 -68 57z"/>
<path d="M3275 978 c-3 -7 -4 -126 -3 -263 3 -242 4 -250 23 -250 19 0 20 7
20 260 0 240 -1 260 -18 263 -9 2 -19 -3 -22 -10z"/>
</g>
</svg>
